<svg width="16" height="11" viewBox="0 0 16 11" fill="none"
  xmlns="http://www.w3.org/2000/svg">
  <path d="M0 1.0825C0 0.530217 0.22386 0.0824966 0.5 0.0824966H15.5C15.7761 0.0824966 16 0.530217 16 1.0825C16 1.63478 15.7761 2.0825 15.5 2.0825H0.5C0.22386 2.0825 0 1.63478 0 1.0825Z"/>
  <path d="M0 5.0825C0 4.53022 0.22386 4.0825 0.5 4.0825H15.5C15.7761 4.0825 16 4.53022 16 5.0825C16 5.63478 15.7761 6.0825 15.5 6.0825H0.5C0.22386 6.0825 0 5.63478 0 5.0825Z"/>
  <path d="M0 9.0825C0 8.53022 0.22386 8.0825 0.5 8.0825H15.5C15.7761 8.0825 16 8.53022 16 9.0825C16 9.63478 15.7761 10.0825 15.5 10.0825H0.5C0.22386 10.0825 0 9.63478 0 9.0825Z"/>
  <path d="M13.8608 9.4228C13.544 9.8752 13.1153 10.1216 12.9033 9.97309L1.38393 1.90717C1.1719 1.7587 1.25675 1.27155 1.57353 0.819152C1.8903 0.366751 2.31905 0.120397 2.53108 0.268864L14.0504 8.33478C14.2625 8.48327 14.1776 8.9704 13.8608 9.4228Z"/>
</svg>
