<svg width="10" height="6" viewBox="0 0 10 6" fill="none"
  xmlns="http://www.w3.org/2000/svg">
  <path d="M0 0.582497C0 0.306357 0.139912 0.0824966 0.3125 0.0824966H9.6875C9.86006 0.0824966 10 0.306357 10 0.582497C10 0.858637 9.86006 1.0825 9.6875 1.0825H0.3125C0.139912 1.0825 0 0.858637 0 0.582497Z" fill="white"/>
  <path d="M0 2.5825C0 2.30636 0.139912 2.0825 0.3125 2.0825H9.6875C9.86006 2.0825 10 2.30636 10 2.5825C10 2.85864 9.86006 3.0825 9.6875 3.0825H0.3125C0.139912 3.0825 0 2.85864 0 2.5825Z" fill="white"/>
  <path d="M0 4.5825C0 4.30636 0.139912 4.0825 0.3125 4.0825H9.6875C9.86006 4.0825 10 4.30636 10 4.5825C10 4.85864 9.86006 5.0825 9.6875 5.0825H0.3125C0.139912 5.0825 0 4.85864 0 4.5825Z" fill="white"/>
</svg>
