<svg viewBox="0 0 15 16" fill="none"
  xmlns="http://www.w3.org/2000/svg">
  <path d="M15 5.21011L14.9992 3.00101L13.9993 3.00138L13.9999 4.50657L11.9286 5.24957L10.4998 5.24979V4.28229C10.5005 3.57996 10.2561 2.8994 9.80879 2.35793L11.1564 1.00144H12.495V0.00156231H10.7403L9.05342 1.6996C8.58167 1.40952 8.03934 1.25451 7.48555 1.25146C6.93176 1.2484 6.38775 1.39743 5.91284 1.68229L4.25504 0L2.50032 0.00156231L2.50122 1.00144L3.83693 1.00025L5.15012 2.33293C4.6897 2.8781 4.43739 3.5688 4.43802 4.28238V5.2507L3.08709 5.25092L0.999877 4.50745V3.00226H0V5.21267L2.50079 6.10347L2.50101 8.75049H0.00106238V9.75036H2.50107V10.0006C2.50047 10.5866 2.60307 11.1681 2.80416 11.7185L0.00106238 12.7988V14.9997H1.00094V13.485L3.24223 12.6213C3.63759 13.2657 4.17413 13.812 4.81138 14.2188C5.44863 14.6256 6.16995 14.8824 6.92091 14.9698C7.67188 15.0572 8.43289 14.9729 9.14653 14.7233C9.86017 14.4737 10.5078 14.0652 11.0406 13.5288C11.315 13.254 11.5567 12.9484 11.7611 12.6181L13.9995 13.4845V14.9997H14.9993V12.7993L12.1991 11.7156C12.4001 11.1639 12.5018 10.581 12.4995 9.9939V9.75036H14.9992V8.75049H12.4995V6.10706L15 5.21011ZM6.99914 13.973C5.03035 13.7295 3.50098 12.0411 3.50098 10.0007L3.50066 6.25086H4.43805V6.25108H6.99914V13.973ZM5.43789 5.25054V4.28229C5.43789 3.74363 5.65187 3.22704 6.03276 2.84615C6.41365 2.46527 6.93024 2.25129 7.46889 2.25129C8.00755 2.25129 8.52414 2.46527 8.90503 2.84615C9.28591 3.22704 9.49989 3.74363 9.49989 4.28229V5.24992L5.43789 5.25054ZM11.4996 9.99524C11.4997 10.9704 11.1442 11.9122 10.4998 12.6441C9.85546 13.376 8.96634 13.848 7.99902 13.9715V6.25079H10.4997V6.24967H11.4996L11.4996 9.99524Z" fill="white"/>
</svg>
