<svg width="12" height="12" viewBox="0 0 12 36" fill="none"
	xmlns="http://www.w3.org/2000/svg">
	<path d="M 12 10 C 11 10 10 10 7 8 C 0 3 0 4 0 2 C 0 0 0 0 2 0 C 4 0 10 5 12 5 C 14 5 20 0 22 0 C 24 0 24 0 24 2 C 24 4 24 3 17 8 C 14 10 13 10 12 10 Z"/>
	<path d="M 12 20 C 11 20 10 20 7 18 C 0 13 0 14 0 12 C 0 10 0 10 2 10 C 4 10 10 15 12 15 C 14 15 20 10 22 10 C 24 10 24 10 24 12 C 24 14 24 13 17 18 C 14 20 13 20 12 20 Z"/>
	<path d="M 12 30 C 11 30 10 30 7 28 C 0 23 0 24 0 22 C 0 20 0 20 2 20 C 4 20 10 25 12 25 C 14 25 20 20 22 20 C 24 20 24 20 24 22 C 24 24 24 23 17 28 C 14 30 13 30 12 30 Z"/>
</svg>
