<svg viewBox="0 0 15 15" fill="none"
  xmlns="http://www.w3.org/2000/svg">
  <path d="M6.72859 2.35714H2.22859C1.88759 2.35714 1.56057 2.4926 1.31945 2.73372C1.07833 2.97483 0.942871 3.30186 0.942871 3.64285V12.6429C0.942871 12.9838 1.07833 13.3109 1.31945 13.552C1.56057 13.7931 1.88759 13.9286 2.22859 13.9286H11.2286C11.5696 13.9286 11.8966 13.7931 12.1377 13.552C12.3788 13.3109 12.5143 12.9838 12.5143 12.6429V8.14285" stroke="white" stroke-linecap="round" stroke-linejoin="round"/>
  <path d="M11.55 1.39286C11.8058 1.13711 12.1527 0.993439 12.5143 0.993439C12.876 0.993439 13.2229 1.13711 13.4786 1.39286C13.7344 1.6486 13.878 1.99547 13.878 2.35714C13.878 2.71882 13.7344 3.06569 13.4786 3.32143L7.37148 9.42857L4.80005 10.0714L5.44291 7.5L11.55 1.39286Z" stroke="white" stroke-linecap="round" stroke-linejoin="round"/>
</svg>
