<svg viewBox="0 0 9 14" fill="none"
  xmlns="http://www.w3.org/2000/svg">
  <path fill-rule="evenodd" clip-rule="evenodd" d="M2.42188 1.40625C1.55895 1.40625 0.859375 2.10582 0.859375 2.96875H0.078125C0.078125 1.67434 1.12746 0.625 2.42188 0.625H3.20312H6.32812C6.54387 0.625 6.71875 0.799891 6.71875 1.01562V1.40625H7.10938V0.625H8.28125V2.96875H7.10938V2.1875H6.71875V2.57812C6.71875 2.79387 6.54387 2.96875 6.32812 2.96875H5.54688V5.93195L5.82309 6.20816L5.9375 6.32258V6.48438V12.7344C5.9375 13.3816 5.41285 13.9062 4.76562 13.9062H4.375C3.72777 13.9062 3.20312 13.3816 3.20312 12.7344V6.48438V6.32258L3.31754 6.20816L3.59375 5.93195V2.96875H3.20312C2.77164 2.96875 2.42188 2.61898 2.42188 2.1875V1.40625ZM5.9375 1.40625H3.20312V2.1875H5.9375V1.40625ZM4.375 6.09375V2.96875H4.76562V6.09375V6.25555L4.88004 6.36996L5.15625 6.64617V12.7344C5.15625 12.9501 4.98137 13.125 4.76562 13.125H4.375C4.15926 13.125 3.98438 12.9501 3.98438 12.7344V6.64617L4.26059 6.36996L4.375 6.25555V6.09375Z" fill="white"/>
</svg>
