<svg width="250" height="141" viewBox="0 0 500 283" fill="none"
  xmlns="http://www.w3.org/2000/svg">
  <path d="M0 0 C13.21144067 6.43496022 21.54648204 19.33990992 28 32 C28.33 32.99 28.66 33.98 29 35 C30.45019531 35.05607422 30.45019531 35.05607422 31.9296875 35.11328125 C50.37444811 36.04465035 50.37444811 36.04465035 55.75390625 40.4296875 C57 42 57 42 57.1875 44.75 C55.0791024 50.52035132 50.54178797 53.72867174 45.14208984 56.42944336 C44.17480957 56.85362549 43.2075293 57.27780762 42.2109375 57.71484375 C41.2317334 58.14788818 40.2525293 58.58093262 39.24365234 59.02709961 C38.50324707 59.34815674 37.7628418 59.66921387 37 60 C37.63537563 60.00146656 38.27075127 60.00293312 38.92538071 60.00444412 C54.38224683 60.04148847 69.83884972 60.10047131 85.29552841 60.18390274 C92.77026482 60.22371996 100.24489553 60.25609873 107.71972656 60.27099609 C114.2344586 60.28399882 120.74895835 60.31092781 127.26355958 60.35461307 C130.71337013 60.37725939 134.16289386 60.39290882 137.61278534 60.39188385 C141.46312558 60.39100075 145.31287864 60.42120791 149.16308594 60.45410156 C150.88075165 60.44655602 150.88075165 60.44655602 152.63311768 60.43885803 C154.20639832 60.45972725 154.20639832 60.45972725 155.8114624 60.48101807 C156.72219387 60.48470524 157.63292534 60.48839241 158.57125473 60.49219131 C161.75780742 61.15844444 162.9493071 62.53125941 165 65 C166.48679725 67.97359449 166.11112605 70.66299179 166.09765625 73.9765625 C166.09553383 75.00443375 166.09553383 75.00443375 166.09336853 76.05307007 C166.08776675 78.24375761 166.07521406 80.4343433 166.0625 82.625 C166.05748522 84.10937352 166.05292228 85.59374865 166.04882812 87.078125 C166.03779677 90.71878315 166.02053099 94.35938164 166 98 C166.85464844 97.98839844 167.70929688 97.97679688 168.58984375 97.96484375 C170.24693359 97.95130859 170.24693359 97.95130859 171.9375 97.9375 C173.03964844 97.92589844 174.14179688 97.91429688 175.27734375 97.90234375 C178 98 178 98 179 99 C179.23363881 100.84891946 179.41303635 102.70488031 179.5625 104.5625 C179.68818359 106.08037109 179.68818359 106.08037109 179.81640625 107.62890625 C179.87699219 108.41136719 179.93757813 109.19382812 180 110 C180.680625 109.319375 181.36125 108.63875 182.0625 107.9375 C185.25995885 105.82853778 186.25653988 105.83317575 189.89395142 106.48324585 C194.22325051 107.5455116 198.36860816 109.12664869 202.54296875 110.67578125 C203.54781815 111.04221237 204.55266754 111.40864349 205.58796692 111.78617859 C208.79019841 112.95521323 211.98894416 114.13345005 215.1875 115.3125 C218.36883103 116.47904448 221.55086954 117.64362278 224.73347473 118.8066864 C226.7079021 119.52888801 228.68150718 120.25334352 230.65409851 120.98054504 C231.57157364 121.31736801 232.48904877 121.65419098 233.43432617 122.0012207 C234.33210785 122.33119049 235.22988953 122.66116028 236.15487671 123.00112915 C240.28710065 124.45187754 244.47612641 125.71932003 248.67134094 126.9752655 C249.43979843 127.31342789 250.20825592 127.65159027 251 128 C252 131 252 131 251.09472656 133.07446289 C250.61487305 133.8658667 250.13501953 134.65727051 249.640625 135.47265625 C249.10655029 136.36452637 248.57247559 137.25639648 248.0222168 138.17529297 C247.14496948 139.60446045 247.14496948 139.60446045 246.25 141.0625 C245.66323486 142.03590332 245.07646973 143.00930664 244.47192383 144.01220703 C242.65839955 147.0146271 240.83054093 150.00793081 239 153 C237.89412739 154.81876492 236.78863817 156.63776302 235.68359375 158.45703125 C233.13477608 162.64570726 230.57177121 166.8253814 228 171 C228.76699219 171.598125 229.53398437 172.19625 230.32421875 172.8125 C234.62482055 176.32832045 237.60292062 179.23528846 238.41796875 184.91015625 C238.56525924 190.57031939 238.42354786 195.27786502 235 200 C230.162755 204.58265316 225.68853189 206.28691687 219.0625 206.3125 C218.06347656 206.32925781 217.06445312 206.34601563 216.03515625 206.36328125 C212.50832742 205.94115116 210.07394797 204.73625377 207 203 C205.28716749 205.3389646 203.60620342 207.69236034 201.9375 210.0625 C201.45216797 210.71927734 200.96683594 211.37605469 200.46679688 212.05273438 C197.94329524 215.68586085 196.97707963 217.31169448 197.12890625 221.87109375 C197.8578688 224.87485563 197.8578688 224.87485563 199 227 C199.039992 228.99960012 199.04346799 231.00047242 199 233 C194.91795739 233.63361122 190.83414901 234.25512378 186.75 234.875 C185.62980469 235.04902344 184.50960938 235.22304687 183.35546875 235.40234375 C179.57497432 235.97258593 175.78988415 236.49706257 172 237 C171.3136145 237.0946051 170.627229 237.18921021 169.92004395 237.28668213 C153.80015029 239.44273275 137.64762258 239.23947063 121.42230225 239.1373291 C117.75421512 239.11651054 114.08609848 239.10766012 110.41796875 239.09765625 C103.27856929 239.07649495 96.13931479 239.04145573 89 239 C89 242.63 89 246.26 89 250 C91.413125 250.433125 91.413125 250.433125 93.875 250.875 C98.75 251.75 98.75 251.75 101 254 C100.75 257.5625 100.75 257.5625 100 261 C96.3707059 262.81464705 92.12092113 262.22758249 88.125 262.25 C86.75794922 262.2809375 86.75794922 262.2809375 85.36328125 262.3125 C84.48285156 262.31765625 83.60242188 262.3228125 82.6953125 262.328125 C81.89109863 262.3374707 81.08688477 262.34681641 80.25830078 262.35644531 C77.3715672 261.90080953 76.03903039 261.08648315 74 259 C73.54589844 256.82348633 73.54589844 256.82348633 73.609375 254.33203125 C73.62226563 253.43935547 73.63515625 252.54667969 73.6484375 251.62695312 C73.69871094 250.23379883 73.69871094 250.23379883 73.75 248.8125 C73.76804687 247.87212891 73.78609375 246.93175781 73.8046875 245.96289062 C73.8518345 243.64090111 73.91761769 241.3209631 74 239 C73.09636719 239.03480469 72.19273437 239.06960937 71.26171875 239.10546875 C70.08222656 239.13253906 68.90273438 239.15960938 67.6875 239.1875 C66.51574219 239.22230469 65.34398437 239.25710937 64.13671875 239.29296875 C61 239 61 239 59.08203125 237.48828125 C58.72496094 236.99714844 58.36789063 236.50601563 58 236 C54.75016865 237.08784968 54.75016865 237.08784968 52 239 C49.98035801 239.07244053 47.95832876 239.08377188 45.9375 239.0625 C44.83277344 239.05347656 43.72804687 239.04445312 42.58984375 239.03515625 C41.30787109 239.01775391 41.30787109 239.01775391 40 239 C40.01571045 239.55985596 40.0314209 240.11971191 40.04760742 240.6965332 C40.10999848 243.2350859 40.14900218 245.77347729 40.1875 248.3125 C40.21263672 249.19357422 40.23777344 250.07464844 40.26367188 250.98242188 C40.27817383 252.25375977 40.27817383 252.25375977 40.29296875 253.55078125 C40.3086792 254.33106689 40.32438965 255.11135254 40.34057617 255.9152832 C39.91223453 258.53722536 39.04678833 259.3637512 37 261 C33.35620011 262.82189994 29.07417515 262.22760405 25.0625 262.25 C24.14275391 262.270625 23.22300781 262.29125 22.27539062 262.3125 C21.39173828 262.31765625 20.50808594 262.3228125 19.59765625 262.328125 C18.78820557 262.3374707 17.97875488 262.34681641 17.14477539 262.35644531 C14.48077703 261.9137091 13.6141482 261.1293154 12 259 C11.5625 256.5 11.5625 256.5 12 254 C13.4375 252.1875 13.4375 252.1875 16 251 C19.04796011 250.7586813 21.9326022 250.86467363 25 251 C25 247.04 25 243.08 25 239 C23.33952637 239.01571045 21.67905273 239.0314209 19.96826172 239.04760742 C-41.04941584 239.5745947 -41.04941584 239.5745947 -65 236 C-67.07023205 235.7103619 -69.14054395 235.42129388 -71.2109375 235.1328125 C-75.81703105 234.47540433 -80.41000708 233.76139883 -85 233 C-85.1328125 227.3125 -85.1328125 227.3125 -83.9375 224.5 C-82.69309748 221.18159329 -83.1394517 219.43391871 -84 216 C-85.81462979 212.7369523 -85.81462979 212.7369523 -88.0625 209.625 C-88.79597656 208.56539062 -89.52945313 207.50578125 -90.28515625 206.4140625 C-90.85105469 205.61742187 -91.41695312 204.82078125 -92 204 C-92.84820312 204.3196875 -93.69640625 204.639375 -94.5703125 204.96875 C-100.90146152 206.87242123 -108.42911551 207.6152715 -114.58203125 204.83203125 C-118.38970689 202.0840056 -120.91308454 199.24154794 -123 195 C-123.89310808 189.12037177 -124.21919962 182.91717608 -120.8125 177.8125 C-118.09611767 175.09611767 -116.51298599 174.24578159 -113 173 C-115.28902355 169.1650828 -117.58174785 165.33238978 -119.875 161.5 C-120.21370117 160.93254059 -120.55240234 160.36508118 -120.90136719 159.78042603 C-124.28365287 154.11467593 -127.66941779 148.45657797 -131.2578125 142.91796875 C-131.72719238 142.1909375 -132.19657227 141.46390625 -132.68017578 140.71484375 C-133.54010941 139.39392461 -134.41042699 138.07968973 -135.29248047 136.7734375 C-138.04293511 132.54160793 -138.04293511 132.54160793 -137.83558655 129.92599487 C-137 128 -137 128 -135.35496521 126.95193481 C-134.64155472 126.69467621 -133.92814423 126.4374176 -133.19311523 126.17236328 C-131.97935463 125.72136765 -131.97935463 125.72136765 -130.74107361 125.26126099 C-129.85585526 124.95074799 -128.9706369 124.64023499 -128.05859375 124.3203125 C-127.14352554 123.98506561 -126.22845734 123.64981873 -125.28565979 123.30441284 C-122.34149299 122.2295516 -119.38992319 121.17694369 -116.4375 120.125 C-114.5053225 119.42465649 -112.57367494 118.72284911 -110.64257812 118.01953125 C-106.87044694 116.64684653 -103.09447872 115.28553704 -99.31591797 113.93066406 C-95.92918071 112.71067873 -92.55964517 111.45732079 -89.20361328 110.15527344 C-88.47280045 109.87303925 -87.74198761 109.59080505 -86.98902893 109.30001831 C-85.05652939 108.54906676 -83.1278297 107.78835672 -81.19946289 107.02685547 C-78.19984305 106.06413887 -76.11255963 105.64398031 -73 106 C-71.1875 107.5 -71.1875 107.5 -70 109 C-69.93941406 108.28972656 -69.87882812 107.57945313 -69.81640625 106.84765625 C-69.69072266 105.46900391 -69.69072266 105.46900391 -69.5625 104.0625 C-69.44068359 102.68771484 -69.44068359 102.68771484 -69.31640625 101.28515625 C-69 99 -69 99 -68 98 C-63.33154772 97.85573386 -58.67134047 97.95791585 -54 98 C-54 91.73 -54 85.46 -54 79 C-56.76375 79.061875 -59.5275 79.12375 -62.375 79.1875 C-69.81787819 79.25176084 -77.50875935 79.3109146 -83.75390625 74.70703125 C-85 73 -85 73 -85.41796875 70.55859375 C-84.72539716 66.31902002 -82.03690322 64.67039888 -78.859375 62.00390625 C-74.0414657 58.62742064 -67.06111138 54 -61 54 C-61.04640625 53.07960937 -61.0928125 52.15921875 -61.140625 51.2109375 C-61.5545504 36.6939823 -58.59854454 22.84318578 -48.3125 11.9375 C-44.8978527 9.07657929 -42.24339034 8.86260895 -37.9375 8.875 C-36.46023437 8.86726562 -36.46023437 8.86726562 -34.953125 8.859375 C-32 9 -32 9 -29.546875 9.578125 C-26.12514406 10.37124144 -23.51723381 10.84842685 -20.32958984 9.06591797 C-17.84135972 7.35836239 -15.46734819 5.56862512 -13.17260742 3.60791016 C-8.63850694 -0.12977488 -5.88193109 -0.79326743 0 0 Z " fill="#25765f" transform="translate(195,7)"/>
  <path d="M0 0 C1.22025627 0.00334608 1.22025627 0.00334608 2.46516418 0.00675976 C3.32285904 0.00519977 4.18055389 0.00363978 5.0642395 0.00203252 C7.96091897 -0.00198124 10.85754675 0.00121361 13.75422668 0.00434887 C15.82169119 0.002995 17.88915546 0.00121515 19.95661926 -0.00096118 C25.58868496 -0.00553716 31.22073243 -0.00374528 36.85279846 -0.0005821 C42.73270214 0.00194066 48.6126042 -0.0003958 54.49250793 -0.00196826 C64.36881288 -0.00379021 74.24511037 -0.001383 84.12141418 0.00337231 C95.55771483 0.00881498 106.99399764 0.00705234 118.43029785 0.00154591 C128.22982944 -0.00298452 138.02935564 -0.00363612 147.82888794 -0.00101542 C153.6902343 0.00054774 159.55157226 0.00074004 165.41291809 -0.00255191 C170.92199035 -0.00542961 176.43103951 -0.00345682 181.94010925 0.00234234 C183.96828676 0.00367049 185.99646619 0.00327491 188.02464294 0.00107968 C190.78088507 -0.00162969 193.53705193 0.00174667 196.29328918 0.00675976 C197.51354546 0.00341368 197.51354546 0.00341368 198.75845337 0 C204.26507685 0.01959357 204.26507685 0.01959357 205.37922668 1.13374341 C205.47739465 2.73606911 205.50554587 4.34272928 205.50621033 5.9480592 C205.50903015 6.98989865 205.51184998 8.0317381 205.51475525 9.10514843 C205.5117189 10.83427975 205.5117189 10.83427975 205.50862122 12.59834301 C205.51124969 14.4079073 205.51124969 14.4079073 205.51393127 16.25402844 C205.51758965 19.57220132 205.51671611 22.89031221 205.51355219 26.20848167 C205.51102778 29.67490788 205.5133664 33.14133137 205.51493835 36.60775769 C205.51676006 42.43112172 205.51435398 48.25447309 205.50959778 54.0778352 C205.5041577 60.81645229 205.50591596 67.55503911 205.51142418 74.29365546 C205.51595834 80.07115638 205.5166043 85.84864818 205.51398551 91.62615031 C205.51242408 95.08028996 205.51222529 98.53441538 205.515522 101.98855412 C205.51893988 105.83896452 205.51420601 109.68934087 205.50862122 113.53974926 C205.51064545 114.69047925 205.51266968 115.84120923 205.51475525 117.02680981 C205.51193542 118.07146908 205.5091156 119.11612835 205.50621033 120.19244397 C205.50564479 121.55935832 205.50564479 121.55935832 205.50506783 122.9538871 C205.37922668 125.13374341 205.37922668 125.13374341 204.37922668 127.13374341 C177.31122607 127.20375137 150.24323897 127.25669126 123.17516613 127.28917992 C110.60765753 127.30466434 98.0402051 127.3257839 85.47273254 127.36006176 C74.52193694 127.38991596 63.57118201 127.40930694 52.62034684 127.41600889 C46.8192363 127.4199279 41.01824214 127.42917074 35.21716881 127.45093358 C29.761419 127.47123586 24.30583396 127.47758991 18.85004997 127.47306645 C16.84366715 127.47389446 14.83727905 127.4798972 12.8309288 127.49135983 C10.09923905 127.50620607 7.3681778 127.50272595 4.63647461 127.49450696 C3.83589589 127.50324548 3.03531717 127.511984 2.21047848 127.52098733 C-3.05312913 127.47794906 -3.05312913 127.47794906 -5.61388302 125.92517006 C-6.95762252 123.53443219 -6.99272042 121.85280524 -6.98826599 119.11015332 C-6.99383514 118.07253354 -6.9994043 117.03491375 -7.00514221 115.96585095 C-6.99592743 114.82806698 -6.98671265 113.69028302 -6.97721863 112.51802075 C-6.979263 111.31949978 -6.98130737 110.12097882 -6.9834137 108.88613904 C-6.98590848 105.59902132 -6.97501075 102.31227886 -6.9578867 99.02521479 C-6.94286108 95.58903746 -6.94402502 92.15286435 -6.94322205 88.71665967 C-6.93952934 82.94808108 -6.92455988 77.17962147 -6.90202332 71.41108716 C-6.87312176 63.99806426 -6.86279767 56.58513706 -6.85834122 49.17206395 C-6.85436664 42.8075114 -6.84186583 36.4429798 -6.82799435 30.07844222 C-6.82388979 28.02792069 -6.82096705 25.97739991 -6.81819916 23.92687619 C-6.81241237 20.11477942 -6.79774404 16.30274589 -6.78190613 12.490677 C-6.78078827 11.34884457 -6.77967041 10.20701214 -6.77851868 9.03057873 C-6.77280853 7.9985986 -6.76709839 6.96661847 -6.76121521 5.90336621 C-6.75824055 5.00114016 -6.75526588 4.09891411 -6.75220108 3.16934788 C-6.4779973 -1.07762723 -3.58354076 0.01275089 0 0 Z " fill="#FEFEFE" transform="translate(151.6207733154297,89.8662565946579)"/>
  <path d="M0 0 C2.97 0 5.94 0 9 0 C9.495 6.93 9.495 6.93 10 14 C11.98 13.01 13.96 12.02 16 11 C22.27133745 11.13080204 27.91409272 13.66712747 33.68359375 15.9296875 C34.69792984 16.32068634 35.71226593 16.71168518 36.75733948 17.11453247 C39.9867768 18.36112685 43.21216821 19.61782653 46.4375 20.875 C48.60194862 21.71292422 50.76665972 22.55017078 52.93164062 23.38671875 C56.91890184 24.92788161 60.90435599 26.47356248 64.88842773 28.02294922 C69.24706413 29.71482408 73.61846644 31.36838963 78 33 C77.67 34.32 77.34 35.64 77 37 C74.03 36.01 74.03 36.01 71 35 C70.76410156 35.68191406 70.52820313 36.36382812 70.28515625 37.06640625 C68.71984511 40.63950249 66.63741343 43.73629846 64.4375 46.9375 C61.70604304 50.95034414 58.99698726 54.96341265 56.4453125 59.09375 C56.0438501 59.73965088 55.6423877 60.38555176 55.22875977 61.05102539 C54.46293106 62.28978578 53.70530669 63.53366345 52.95678711 64.78295898 C51.91015625 66.46484375 51.91015625 66.46484375 50 69 C49.01 69 48.02 69 47 69 C45.73694665 63.92523206 44.72963916 59.27203646 45 54 C44.01 54.495 44.01 54.495 43 55 C43.495 62.425 43.495 62.425 44 70 C36.98067099 73.26250503 32.56010861 74.58402276 25 73 C23.2365625 72.7215625 23.2365625 72.7215625 21.4375 72.4375 C20.2309375 72.2209375 20.2309375 72.2209375 19 72 C19 72.99 19 73.98 19 75 C24.445 75.99 24.445 75.99 30 77 C30.495 80.96 30.495 80.96 31 85 C30.30132812 85.40992188 29.60265625 85.81984375 28.8828125 86.2421875 C27.97273438 86.78101563 27.06265625 87.31984375 26.125 87.875 C25.22007812 88.40867187 24.31515625 88.94234375 23.3828125 89.4921875 C20.76871919 91.14635146 19.26170691 92.11019651 18.375 95.125 C18.25125 95.74375 18.1275 96.3625 18 97 C18.99 97 19.98 97 21 97 C21.25265625 96.39671875 21.5053125 95.7934375 21.765625 95.171875 C23.85513789 91.49539029 27.23743642 89.75539676 31 88 C34.375 87.5625 34.375 87.5625 37 88 C39 90 39 90 39.5078125 93.578125 C39.35072062 99.91321211 34.92669738 104.23588505 31.08984375 108.9375 C28.44316403 112.49961953 26.96871333 114.71377022 27.07910156 119.25195312 C27.57461919 122.22855461 28.18659794 125.09543313 29 128 C24.62630053 128.63431107 20.25082422 129.25553091 15.875 129.875 C14.67617188 130.04902344 13.47734375 130.22304687 12.2421875 130.40234375 C-8.84729535 133.36805228 -29.5796588 134.27327287 -50.875 134.125 C-53.4244756 134.11493713 -55.9739551 134.10581721 -58.5234375 134.09765625 C-64.68239063 134.0759347 -70.84115034 134.04159223 -77 134 C-77 126.74 -77 119.48 -77 112 C-73.75192505 111.97812622 -73.75192505 111.97812622 -70.43823242 111.95581055 C-63.28952167 111.90550821 -56.14102975 111.83892109 -48.99253368 111.76428509 C-44.65772034 111.71952795 -40.32300214 111.68028384 -35.98803711 111.65356445 C-31.80573993 111.62758445 -27.62380785 111.5872203 -23.44173622 111.53681374 C-21.84496916 111.52010897 -20.2481389 111.50861721 -18.65129662 111.50238609 C-16.41712402 111.49278383 -14.18389309 111.46477338 -11.94995117 111.43237305 C-10.67754074 111.42126999 -9.40513031 111.41016693 -8.09416199 111.39872742 C-5.02957819 111.26188952 -5.02957819 111.26188952 -3.12812805 109.59797668 C-0.93811875 106.49586093 -0.85377654 104.3977621 -0.79467773 100.63232422 C-0.77473251 99.51131317 -0.75478729 98.39030212 -0.73423767 97.23532104 C-0.71752518 96.02071198 -0.70081268 94.80610291 -0.68359375 93.5546875 C-0.6524221 91.69446457 -0.6524221 91.69446457 -0.62062073 89.79666138 C-0.56622295 86.49888177 -0.51599905 83.2010728 -0.46777344 79.90319824 C-0.41754766 76.53827347 -0.36186723 73.1734395 -0.30664062 69.80859375 C-0.19938443 63.20580146 -0.09762811 56.60294128 0 50 C3.64679879 52.98596533 6.7703989 55.56515994 9.4375 59.5 C9.95183594 60.2321875 10.46617187 60.964375 10.99609375 61.71875 C12.27236228 64.61890884 11.93321556 66.01274811 11 69 C10.04605164 71.02237052 9.05464649 73.0282696 8 75 C12.35744658 73.52487332 13.91737117 70.36612573 15.9375 66.5 C16.28232422 65.85087646 16.62714844 65.20175293 16.98242188 64.53295898 C20.91725839 56.74510849 22.98674104 48.44988015 25 40 C23.515 40.495 23.515 40.495 22 41 C20.78130071 43.50447516 20.78130071 43.50447516 20 46 C15.74436735 42.43916451 11.71740916 38.8083781 7.87109375 34.80859375 C5.93646139 32.78931165 5.93646139 32.78931165 2.80859375 31.1796875 C0.38374481 29.18321972 0.02163906 28.13585557 -0.48168945 24.97583008 C-0.59145981 21.19659359 -0.52182376 17.46538831 -0.375 13.6875 C-0.33439453 11.71813477 -0.33439453 11.71813477 -0.29296875 9.70898438 C-0.2223216 6.47099021 -0.12370566 3.23633042 0 0 Z " fill="#96c7b9" transform="translate(361,109)"/>
  <path d="M0 0 C3.96 0 7.92 0 12 0 C14.23216412 22.91688497 14.23216412 22.91688497 10.57617188 29.60449219 C7.19344713 33.71521433 3.16681301 36.9055808 -1.2824707 39.80273438 C-3.07137289 40.96832037 -3.07137289 40.96832037 -4.59838867 42.65039062 C-6 44 -6 44 -8 44 C-8 42.68 -8 41.36 -8 40 C-9.32 40 -10.64 40 -12 40 C-7.25295993 57.10093981 -7.25295993 57.10093981 2 72 C2.66 72 3.32 72 4 72 C3.690625 71.46375 3.38125 70.9275 3.0625 70.375 C1.76521225 67.47518033 1.22682081 65.17940203 1 62 C2.36328125 59.33203125 2.36328125 59.33203125 4.3125 56.8125 C4.94800781 55.97332031 5.58351563 55.13414062 6.23828125 54.26953125 C6.81964844 53.52058594 7.40101563 52.77164063 8 52 C8.66 51.01 9.32 50.02 10 49 C10.66 49 11.32 49 12 49 C12.00546844 50.07661896 12.00546844 50.07661896 12.01104736 51.17498779 C12.04893462 57.94341934 12.10579548 64.71145507 12.18390274 71.47953415 C12.22339051 74.95903137 12.2555721 78.43827505 12.27099609 81.91796875 C12.28905547 85.91968376 12.33899981 89.92045124 12.390625 93.921875 C12.39185364 95.16990906 12.39308228 96.41794312 12.39434814 97.70379639 C12.41406677 98.86469788 12.4337854 100.02559937 12.45410156 101.22167969 C12.46298401 102.24316101 12.47186646 103.26464233 12.48101807 104.31707764 C13.15992671 107.82675507 14.0666716 108.96634633 17 111 C20.34584311 111.6176994 20.34584311 111.6176994 24.15527344 111.54589844 C25.22416557 111.56140495 25.22416557 111.56140495 26.31465149 111.57722473 C28.66312329 111.60665349 31.0107333 111.60815183 33.359375 111.609375 C34.99035282 111.62435671 36.62131547 111.64108384 38.2522583 111.65948486 C42.53974097 111.70317214 46.827019 111.72316037 51.11468506 111.73822021 C55.49194446 111.75778644 59.86898269 111.79975695 64.24609375 111.83984375 C72.8306984 111.91516097 81.41514299 111.96337195 90 112 C90 119.26 90 126.52 90 134 C34.92063648 134.71197741 34.92063648 134.71197741 11.6875 132.125 C10.50763016 131.99430115 10.50763016 131.99430115 9.30392456 131.86096191 C0.81189125 130.89578205 -7.61495803 129.67183314 -16 128 C-15.16992188 124.72851562 -15.16992188 124.72851562 -14.33984375 121.45703125 C-13.4651809 115.13331938 -16.49486033 111.64534292 -20.0625 106.8125 C-23.89993159 101.399289 -26.1317377 97.51455262 -25.3515625 90.66015625 C-25.23554687 90.11230469 -25.11953125 89.56445312 -25 89 C-24.05125 88.5875 -23.1025 88.175 -22.125 87.75 C-18.99283376 85.9959869 -18.13499394 85.29148243 -17 82 C-13.00499382 83.3697164 -10.19990508 85.25722422 -7 88 C-7 86.35 -7 84.7 -7 83 C-8.0828125 82.5978125 -8.0828125 82.5978125 -9.1875 82.1875 C-13.89056282 80.20176236 -17.16674487 78.32444203 -20 74 C-19.3125 72.0625 -19.3125 72.0625 -18 70 C-15.375 69.25 -15.375 69.25 -13 69 C-13 67.68 -13 66.36 -13 65 C-17.72640368 66.6530334 -17.72640368 66.6530334 -21.4375 69.75 C-23 71 -23 71 -24.953125 70.96484375 C-26.97870263 70.71341716 -28.99127644 70.36222884 -31 70 C-31 65.05 -31 60.1 -31 55 C-31.66 55 -32.32 55 -33 55 C-33.33 58.96 -33.66 62.92 -34 67 C-37.8583658 65.71387807 -38.33822008 64.29596845 -40.43359375 60.86328125 C-41.4071582 59.28450195 -41.4071582 59.28450195 -42.40039062 57.67382812 C-43.07263672 56.56458984 -43.74488281 55.45535156 -44.4375 54.3125 C-45.768852 52.14151039 -47.10086381 49.97092524 -48.43359375 47.80078125 C-49.02197021 46.83309814 -49.61034668 45.86541504 -50.21655273 44.8684082 C-51.50191598 42.80109366 -52.84501094 40.7692817 -54.22290039 38.76245117 C-56 36 -56 36 -56 34 C-58.97 34.66 -61.94 35.32 -65 36 C-65.495 34.515 -65.495 34.515 -66 33 C-54.74942711 28.46247613 -43.46421317 24.01686971 -32.14379883 19.65649414 C-30.23491238 18.91891372 -28.32771326 18.17695337 -26.42211914 17.4309082 C-23.63560266 16.34059395 -20.84395101 15.26454148 -18.05078125 14.19140625 C-17.19978348 13.85508682 -16.34878571 13.5187674 -15.47200012 13.17225647 C-14.67984604 12.87121506 -13.88769196 12.57017365 -13.0715332 12.26000977 C-12.37953323 11.9916481 -11.68753326 11.72328644 -10.9745636 11.4467926 C-6.93778775 10.53337478 -3.77912373 12.48835051 0 14 C0 9.38 0 4.76 0 0 Z " fill="#96c7b9" transform="translate(130,109)"/>
  <!--<path d="M0 0 C3.875 1.875 3.875 1.875 5 3 C7.18292774 3.23481693 9.37203174 3.41363323 11.5625 3.5625 C13.35880859 3.68818359 13.35880859 3.68818359 15.19140625 3.81640625 C16.11824219 3.87699219 17.04507813 3.93757812 18 4 C18.02187378 4.89307861 18.02187378 4.89307861 18.04418945 5.80419922 C18.11854344 8.49513051 18.21524187 11.18480333 18.3125 13.875 C18.33505859 14.81214844 18.35761719 15.74929688 18.38085938 16.71484375 C18.41630859 17.61074219 18.45175781 18.50664062 18.48828125 19.4296875 C18.51446533 20.25710449 18.54064941 21.08452148 18.56762695 21.93701172 C18.83096637 24.39327932 18.83096637 24.39327932 22 26 C24.42045438 26.27543845 24.42045438 26.27543845 27.10546875 26.1953125 C28.08837891 26.18886719 29.07128906 26.18242187 30.08398438 26.17578125 C31.62022461 26.15064453 31.62022461 26.15064453 33.1875 26.125 C34.74114258 26.11146484 34.74114258 26.11146484 36.32617188 26.09765625 C38.88434685 26.0740786 41.44205748 26.0411703 44 26 C44.33 24.02 44.66 22.04 45 20 C60.40429268 19.63887508 75.59472926 19.97237068 90.9375 21.3125 C91.999617 21.4009166 91.999617 21.4009166 93.08319092 21.49111938 C102.25503284 22.26815713 111.08448129 23.6648695 120 26 C120 27.32 120 28.64 120 30 C110.43212319 32.32149196 101.10219385 33.6849995 91.30859375 34.453125 C89.16042824 34.62221137 87.01392954 34.80598546 84.8671875 34.9921875 C59.58584185 37.12414003 34.2866085 37.18797675 8.93457031 37.18530273 C5.0067885 37.18522206 1.07912479 37.19208518 -2.84863281 37.20581055 C-23.57037561 37.2770183 -44.24271425 37.13461882 -64.94140625 36.078125 C-65.75680374 36.03677618 -66.57220123 35.99542736 -67.41230774 35.95282555 C-104.85190075 34.00444575 -104.85190075 34.00444575 -118 29 C-117.505 27.515 -117.505 27.515 -117 26 C-107.10809136 22.17580851 -95.47415293 21.88820462 -85 21 C-83.71480469 20.8865625 -82.42960937 20.773125 -81.10546875 20.65625 C-68.75253661 19.72492946 -56.37976498 19.90374585 -44 20 C-43.690625 20.804375 -43.38125 21.60875 -43.0625 22.4375 C-42.23664655 24.89080405 -42.23664655 24.89080405 -41 26 C-39.55869931 26.09888535 -38.11265623 26.13079377 -36.66796875 26.1328125 C-35.78689453 26.13410156 -34.90582031 26.13539063 -33.99804688 26.13671875 C-33.07056641 26.13285156 -32.14308594 26.12898438 -31.1875 26.125 C-29.81368164 26.13080078 -29.81368164 26.13080078 -28.41210938 26.13671875 C-27.52716797 26.13542969 -26.64222656 26.13414062 -25.73046875 26.1328125 C-24.91989014 26.13168457 -24.10931152 26.13055664 -23.27416992 26.12939453 C-20.68223156 26.05304063 -20.68223156 26.05304063 -17 25 C-16.67 18.07 -16.34 11.14 -16 4 C-14.1025 3.896875 -12.205 3.79375 -10.25 3.6875 C-5.81882813 3.44667544 -3.32851768 3.01343955 0 0 Z " fill="#EAECEE" transform="translate(251,242)"/>-->
  <path d="M0 0 C0.8141863 0.00291284 1.6283726 0.00582568 2.46723121 0.00882679 C3.32563163 0.00797237 4.18403206 0.00711794 5.06844461 0.00623763 C7.96746169 0.00458018 10.86642191 0.01010849 13.76543373 0.01555592 C15.83452043 0.01583776 17.90360722 0.01568012 19.97269386 0.01511341 C25.60882722 0.01482532 31.24493949 0.02072398 36.88106793 0.02768737 C42.76410721 0.03391892 48.64714691 0.03452455 54.53018898 0.03571278 C65.67910687 0.03882668 76.82801501 0.04704087 87.97692859 0.05706227 C100.66594727 0.06822157 113.3549664 0.07373339 126.04398876 0.0787577 C152.15418612 0.08922343 178.26437481 0.10682402 204.37456459 0.12908131 C204.37456459 0.45908131 204.37456459 0.78908131 204.37456459 1.12908131 C137.38456459 1.12908131 70.39456459 1.12908131 1.37456459 1.12908131 C1.47768959 18.99033131 1.58081459 36.85158131 1.68706459 55.25408131 C1.71195961 60.89002369 1.73685463 66.52596607 1.76250404 72.33269459 C1.79907626 77.3927533 1.79907626 77.3927533 1.83957618 82.45278126 C1.8557066 84.70331856 1.86600791 86.95390229 1.87168068 89.20449024 C1.88142154 92.61726855 1.90976257 96.02944144 1.94219154 99.44206959 C1.9400526 100.94141387 1.9400526 100.94141387 1.93787044 102.47104794 C2.00942104 107.74488607 2.32539575 111.61712625 5.37456459 116.12908131 C10.40317201 119.48148626 15.37009965 119.27942835 21.26489967 119.28729969 C22.05321385 119.29223767 22.84152803 119.29717565 23.65373051 119.30226326 C26.29154878 119.31760434 28.92934277 119.32598969 31.56719154 119.33440357 C33.45953278 119.34398476 35.35187188 119.35399499 37.24420875 119.36440235 C42.38009888 119.39143138 47.51599818 119.41245181 52.65192002 119.43240434 C58.01978691 119.45427622 63.3876256 119.48165904 68.75546974 119.50846058 C78.91967041 119.55837119 89.08388674 119.60331609 99.24811804 119.64648294 C110.81997925 119.69586925 122.39181216 119.75078222 133.96364599 119.80616254 C157.76725912 119.91995754 181.57089939 120.02680201 205.37456459 120.12908131 C205.04456459 122.43908131 204.71456459 124.74908131 204.37456459 127.12908131 C177.30656397 127.19908927 150.23857687 127.25202916 123.17050403 127.28451782 C110.60299543 127.30000224 98.035543 127.3211218 85.46807045 127.35539967 C74.51727484 127.38525386 63.56651991 127.40464485 52.61568475 127.41134679 C46.8145742 127.4152658 41.01358004 127.42450865 35.21250671 127.44627148 C29.75675691 127.46657377 24.30117187 127.47292781 18.84538788 127.46840435 C16.83900506 127.46923236 14.83261695 127.4752351 12.82626671 127.48669773 C10.09457696 127.50154397 7.36351571 127.49806385 4.63181251 127.48984486 C3.83123379 127.49858338 3.03065507 127.50732191 2.20581639 127.51632524 C-3.05779123 127.47328696 -3.05779123 127.47328696 -5.61854511 125.92050797 C-6.96228462 123.52977009 -6.99738252 121.84814314 -6.99292809 119.10549122 C-6.99849724 118.06787144 -7.00406639 117.03025166 -7.00980431 115.96118885 C-7.00058953 114.82340489 -6.99137474 113.68562092 -6.98188072 112.51335865 C-6.9839251 111.31483769 -6.98596947 110.11631672 -6.98807579 108.88147694 C-6.99057058 105.59435922 -6.97967285 102.30761677 -6.96254879 99.02055269 C-6.94752317 95.58437536 -6.94868711 92.14820226 -6.94788414 88.71199757 C-6.94419144 82.94341898 -6.92922198 77.17495938 -6.90668541 71.40642506 C-6.87778385 63.99340216 -6.86745976 56.58047497 -6.86300331 49.16740185 C-6.85902873 42.8028493 -6.84652792 36.4383177 -6.83265644 30.07378012 C-6.82855188 28.02325859 -6.82562915 25.97273781 -6.82286125 23.92221409 C-6.81707447 20.11011732 -6.80240613 16.29808379 -6.78656822 12.4860149 C-6.78545037 11.34418247 -6.78433251 10.20235005 -6.78318077 9.02591664 C-6.77747063 7.9939365 -6.77176049 6.96195637 -6.76587731 5.89870411 C-6.76290264 4.99647806 -6.75992798 4.09425202 -6.75686318 3.16468579 C-6.48249296 -1.08486718 -3.58435184 0.00972949 0 0 Z " fill="#E2E8EC" transform="translate(151.62543541193008,89.8709186911583)"/>
  <path d="M0 0 C11.72626552 6.46079404 21.44841022 18.51491295 26 31 C26 31.66 26 32.32 26 33 C25.25766113 33.06469482 24.51532227 33.12938965 23.75048828 33.19604492 C-2.19608348 35.51661579 -26.90442094 39.94044434 -51.890625 47.43676758 C-54 48 -54 48 -56 48 C-56.74342141 34.04019788 -54.0834225 21.2977235 -44.8125 10.4375 C-39.21149312 7.57476315 -32.96448791 8.71038099 -27 10 C-21.50385543 10.58983015 -18.90160798 9.70146452 -14.70117188 6.4453125 C-14.11916016 5.96835937 -13.53714844 5.49140625 -12.9375 5 C-5.50292211 -1.05235164 -5.50292211 -1.05235164 0 0 Z " fill="#96c7b9" transform="translate(194,11)"/>
  <path d="M0 0 C8.31002413 -0.04513676 16.61995339 -0.08185017 24.93006706 -0.10362434 C28.78854797 -0.11407343 32.64694085 -0.128253 36.50537109 -0.15087891 C40.22712192 -0.1725674 43.94878794 -0.18456014 47.67059708 -0.18975449 C49.09241191 -0.19345745 50.51422197 -0.20068819 51.93600082 -0.21146011 C53.92327114 -0.22592119 55.91062631 -0.22681646 57.89794922 -0.22705078 C59.03046112 -0.231492 60.16297302 -0.23593323 61.32980347 -0.24050903 C64 0 64 0 66 2 C66 5.3 66 8.6 66 12 C108.24 12 150.48 12 194 12 C194.99 13.98 194.99 13.98 196 16 C126.37 16 56.74 16 -15 16 C-15 14.68 -15 13.36 -15 12 C-10.38 12 -5.76 12 -1 12 C-0.67 8.04 -0.34 4.08 0 0 Z " fill="#FEFEFE" transform="translate(161,60)"/>
  <path d="M0 0 C27.49371092 -0.02332549 54.98742037 -0.04097745 82.48113918 -0.05181217 C95.2459744 -0.05697588 108.01080348 -0.06401998 120.77563477 -0.07543945 C131.89707587 -0.08538403 143.01851254 -0.09185288 154.13995796 -0.09408849 C160.03262097 -0.09539599 165.92527127 -0.09848427 171.81793022 -0.10573006 C177.35735416 -0.1124867 182.89676008 -0.11461769 188.43618774 -0.11310768 C190.47565369 -0.11338417 192.5151202 -0.11539139 194.5545826 -0.11920547 C197.32620083 -0.12413717 200.09774987 -0.12300024 202.86936951 -0.12025452 C204.09648538 -0.12462378 204.09648538 -0.12462378 205.34839147 -0.12908131 C210.88587879 -0.11412121 210.88587879 -0.11412121 212 1 C212 2.98 212 4.96 212 7 C142.04 7 72.08 7 0 7 C0 4.69 0 2.38 0 0 Z " fill="#FEFEFE" transform="translate(145,80)"/>
  <path d="M0 0 C5 7.5 5 7.5 5 11 C3.8864917 11.09704224 3.8864917 11.09704224 2.75048828 11.19604492 C-23.19608348 13.51661579 -47.90442094 17.94044434 -72.890625 25.43676758 C-75 26 -75 26 -77 26 C-77 22.7 -77 19.4 -77 16 C-65.52909089 11.39581441 -54.02922404 7.83462343 -42 5 C-41.19546387 4.80631836 -40.39092773 4.61263672 -39.56201172 4.41308594 C-29.70467138 2.08234453 -19.99649354 0.61465661 -9.875 0.0625 C-8.92004639 0.00481445 -7.96509277 -0.05287109 -6.98120117 -0.11230469 C-6.09795166 -0.14614258 -5.21470215 -0.17998047 -4.3046875 -0.21484375 C-3.52077637 -0.24698975 -2.73686523 -0.27913574 -1.92919922 -0.31225586 C-1.29256348 -0.20921143 -0.65592773 -0.10616699 0 0 Z " fill="#96c7b9" transform="translate(215,33)"/>
  <path d="M0 0 C0.99 0.66 1.98 1.32 3 2 C3.83246103 7.2228377 3.36981837 9.97862921 0.3046875 14.296875 C-1.3893151 16.55025551 -3.12777469 18.75340006 -4.91015625 20.9375 C-7.55683597 24.49961953 -9.03128667 26.71377022 -8.92089844 31.25195312 C-8.42538081 34.22855461 -7.81340206 37.09543313 -7 40 C-11.37369947 40.63431107 -15.74917578 41.25553091 -20.125 41.875 C-21.32382812 42.04902344 -22.52265625 42.22304687 -23.7578125 42.40234375 C-44.84729535 45.36805228 -65.5796588 46.27327287 -86.875 46.125 C-89.4244756 46.11493713 -91.9739551 46.10581721 -94.5234375 46.09765625 C-100.68237889 46.07593474 -106.8411703 46.04272592 -113 46 C-113 44.35 -113 42.7 -113 41 C-111.80439453 40.98541748 -110.60878906 40.97083496 -109.37695312 40.95581055 C-85.92642396 40.64863581 -62.72986027 39.96842922 -39.41015625 37.37304688 C-34.11231402 36.79350056 -28.80650213 36.30507706 -23.5 35.8125 C-21.82286116 35.65292608 -20.14577053 35.49284381 -18.46875 35.33203125 C-17.3240625 35.22246094 -16.179375 35.11289063 -15 35 C-15.12584473 34.36731201 -15.25168945 33.73462402 -15.38134766 33.08276367 C-16.2860013 27.30868988 -16.16862582 23.94445527 -12.77734375 19.13085938 C-12.31457031 18.53080078 -11.85179687 17.93074219 -11.375 17.3125 C-10.93542969 16.70083984 -10.49585938 16.08917969 -10.04296875 15.45898438 C-8.71721832 13.62198415 -7.36180909 11.81037632 -6 10 C-2.4426762 5.31493621 -2.4426762 5.31493621 0 0 Z " fill="#96c7b9" transform="translate(397,197)"/>
  <path d="M0 0 C2.48019414 1.24009707 2.66753271 2.10482055 3.79296875 4.58984375 C5.2021107 7.52386692 6.71752392 10.17037475 8.61328125 12.81640625 C9.05607422 13.43580078 9.49886719 14.05519531 9.95507812 14.69335938 C10.86866186 15.95134446 11.7934137 17.20128606 12.72851562 18.44335938 C15.14070215 21.8603267 16.02616011 23.33892691 15.85546875 27.65234375 C15.57316406 28.75707031 15.29085937 29.86179688 15 31 C14.814375 31.969375 14.62875 32.93875 14.4375 33.9375 C14.2209375 34.9584375 14.2209375 34.9584375 14 36 C14.90878906 36.04898438 15.81757812 36.09796875 16.75390625 36.1484375 C23.3056655 36.53818318 29.74997375 37.05015974 36.25 38 C41.62000039 38.75023142 46.93338295 39.25607222 52.34765625 39.52734375 C53.15487625 39.56866928 53.96209625 39.60999481 54.79377747 39.65257263 C66.25099812 40.19977334 77.72015101 40.36027582 89.1875 40.5625 C91.50977111 40.60582656 93.83203681 40.64944458 96.15429688 40.69335938 C101.76947341 40.7989229 107.38470538 40.90092735 113 41 C113 42.65 113 44.3 113 46 C58.58502355 46.78595598 58.58502355 46.78595598 34.6875 44.125 C33.9009201 44.03786743 33.11434021 43.95073486 32.30392456 43.86096191 C23.81189125 42.89578205 15.38504197 41.67183314 7 40 C7.83007812 36.72851562 7.83007812 36.72851562 8.66015625 33.45703125 C9.5348191 27.13331938 6.50513967 23.64534292 2.9375 18.8125 C-0.89993159 13.399289 -3.1317377 9.51455262 -2.3515625 2.66015625 C-2.23554687 2.11230469 -2.11953125 1.56445312 -2 1 C-1.34 0.67 -0.68 0.34 0 0 Z " fill="#96c7b9" transform="translate(107,197)"/>
  <path d="M0 0 C0.74701172 -0.02900391 1.49402344 -0.05800781 2.26367188 -0.08789062 C7.55898583 -0.1483288 10.46944124 0.84332269 14.6875 4.3125 C17.85034231 8.0024827 18.20742627 11.39103854 18.04296875 16.09765625 C17.33662972 20.49869176 14.87961757 23.26488153 11.625 26.125 C7.22015532 28.82474351 2.69715165 28.8231499 -2.3125 28.3125 C-5.28162882 26.92269502 -7.00907028 25.61592972 -9.3125 23.3125 C-9.52608801 19.46791573 -9.49131287 15.99629022 -8.3125 12.3125 C-10.9525 12.3125 -13.5925 12.3125 -16.3125 12.3125 C-16.6425 10.0025 -16.9725 7.6925 -17.3125 5.3125 C-11.29567307 1.16757478 -7.2200637 0.09201441 0 0 Z " fill="#F9FCFD" transform="translate(412.3125,181.6875)"/>
  <path d="M0 0 C0.70979004 0.00725098 1.41958008 0.01450195 2.15087891 0.02197266 C8.31995084 0.18487582 13.66908284 0.85658284 18.1875 5.375 C18.4375 7.875 18.4375 7.875 18.1875 10.375 C15.42526722 13.13723278 12.98043383 12.95356291 9.1875 13.375 C9.31769531 13.96667969 9.44789062 14.55835938 9.58203125 15.16796875 C10.01413828 17.64349778 10.29697205 19.86135342 10.1875 22.375 C8.02403764 25.18165387 6.33943199 26.799034 3.1875 28.375 C-1.8236158 28.92478069 -5.70946493 28.93654513 -10.25 26.625 C-14.80751079 22.62328321 -16.62164757 19.70339968 -17.125 13.5625 C-17.06053379 9.17879803 -15.69877274 6.72931697 -12.8125 3.375 C-8.68923251 0.23026157 -5.03203043 -0.10000528 0 0 Z " fill="#FBFDFD" transform="translate(91.8125,181.625)"/>
  <path d="M0 0 C11.22 0 22.44 0 34 0 C34 7.26 34 14.52 34 22 C23 22 23 22 19.8125 20 C19.214375 19.34 18.61625 18.68 18 18 C15.0280615 19.12451727 12.66559313 20.22293791 10 22 C6.7 22 3.4 22 0 22 C0 14.74 0 7.48 0 0 Z " fill="#96c7b9" transform="translate(235,221)"/>
  <path d="M0 0 C1.28777344 -0.01611328 2.57554687 -0.03222656 3.90234375 -0.04882812 C11.15126741 -0.05254552 16.90880272 0.53969088 23.625 3.3125 C23.42578125 5.61328125 23.42578125 5.61328125 22.625 8.3125 C20.48046875 10.04296875 20.48046875 10.04296875 17.8125 11.5 C16.93980469 11.98855469 16.06710938 12.47710937 15.16796875 12.98046875 C14.32878906 13.42003906 13.48960937 13.85960937 12.625 14.3125 C11.91988281 14.70050781 11.21476562 15.08851562 10.48828125 15.48828125 C8.625 16.3125 8.625 16.3125 5.625 16.3125 C5.274375 15.549375 4.92375 14.78625 4.5625 14 C1.55404448 9.82698105 -2.46154046 9.30041509 -7.375 8.3125 C-11.55304251 7.95993835 -15.68522713 7.9812438 -19.875 8.0625 C-20.93847656 8.06765625 -22.00195312 8.0728125 -23.09765625 8.078125 C-28.77740794 8.13387716 -34.33887567 8.46640307 -39.98144531 9.09423828 C-43.98726577 9.45951811 -47.98110092 9.41846563 -52 9.375 C-53.22009766 9.36823242 -53.22009766 9.36823242 -54.46484375 9.36132812 C-56.43492898 9.34973939 -58.40497536 9.33181397 -60.375 9.3125 C-60.375 8.9825 -60.375 8.6525 -60.375 8.3125 C-56.37853298 7.48799841 -52.38068754 6.67054452 -48.3815918 5.85888672 C-47.02868221 5.58335611 -45.67612577 5.30608423 -44.32397461 5.02685547 C-29.56065316 1.98071763 -15.12333666 -0.03854061 0 0 Z " fill="#96c7b9" transform="translate(224.375,46.6875)"/>
  <path d="M0 0 C1.32 0 2.64 0 4 0 C3.37472774 3.5356396 1.94596313 5.75167622 -0.16015625 8.6328125 C-0.78857422 9.52226562 -1.41699219 10.41171875 -2.06445312 11.328125 C-3.38675457 13.1790885 -4.72256519 15.02048202 -6.07226562 16.8515625 C-10.40907161 23.05591392 -12.02363559 27.42366214 -11 35 C-19.80303592 36.5921465 -28.5999655 37.67996772 -37.5 38.5625 C-38.72847656 38.68818359 -39.95695312 38.81386719 -41.22265625 38.94335938 C-43.672867 39.19149843 -46.1237271 39.43330933 -48.57519531 39.66870117 C-50.6384584 39.86829114 -52.70077855 40.07864238 -54.76074219 40.30981445 C-65.55037547 41.41636825 -76.41815058 41.10744191 -87.25 41.0625 C-89.36328019 41.05747533 -91.47656154 41.05291413 -93.58984375 41.04882812 C-98.72659142 41.03789833 -103.86328274 41.0206869 -109 41 C-109 39.68 -109 38.36 -109 37 C-107.70827881 36.98541748 -106.41655762 36.97083496 -105.08569336 36.95581055 C-81.04445885 36.66412844 -57.26529699 36.12908764 -33.37060547 33.34765625 C-27.26013237 32.7174003 -21.131545 32.36240335 -15 32 C-15.22993652 30.96141846 -15.45987305 29.92283691 -15.69677734 28.8527832 C-16.05128106 24.34841676 -15.36518676 23.0187226 -12.8515625 19.35546875 C-12.17609375 18.34935547 -11.500625 17.34324219 -10.8046875 16.30664062 C-10.08539063 15.27732422 -9.36609375 14.24800781 -8.625 13.1875 C-7.22116237 11.11861972 -5.81750709 9.04961568 -4.4140625 6.98046875 C-3.7845166 6.07192139 -3.1549707 5.16337402 -2.50634766 4.22729492 C-0.99163369 2.09212478 -0.99163369 2.09212478 0 0 Z " fill="#F3F7F8" transform="translate(393,197)"/>
  <path d="M0 0 C-0.62154086 2.79693385 -1.27969643 4.53706333 -3.73828125 6.1171875 C-5.80773039 7.12268256 -7.89763897 8.06561732 -10 9 C-13.68063108 10.85068032 -13.68063108 10.85068032 -16 14 C-16.22622081 15.70363822 -16.40888473 17.41328701 -16.5625 19.125 C-16.64628906 20.03507812 -16.73007813 20.94515625 -16.81640625 21.8828125 C-16.87699219 22.58148438 -16.93757813 23.28015625 -17 24 C-20.35399849 24.0878954 -23.7076964 24.14068879 -27.0625 24.1875 C-28.00544922 24.21263672 -28.94839844 24.23777344 -29.91992188 24.26367188 C-35.76642736 24.32478517 -39.81287544 23.74104641 -45 21 C-44.890625 18.75 -44.890625 18.75 -44 16 C-41.8965019 14.39501879 -40.06245763 13.2149579 -37.75 12 C-37.12029297 11.65678711 -36.49058594 11.31357422 -35.84179688 10.95996094 C-9.37063512 -3.12354504 -9.37063512 -3.12354504 0 0 Z " fill="#96c7b9" transform="translate(159,58)"/>
  <path d="M0 0 C3.53437695 1.42981181 4.96993651 3.01837959 6.9453125 6.24609375 C7.46480469 7.08333984 7.98429687 7.92058594 8.51953125 8.78320312 C9.04933594 9.65912109 9.57914063 10.53503906 10.125 11.4375 C11.19007906 13.16538006 12.25518222 14.89324526 13.3203125 16.62109375 C13.78711426 17.3886499 14.25391602 18.15620605 14.73486328 18.94702148 C15.78693901 20.654259 16.88761887 22.3314283 18 24 C17.7578125 26.26171875 17.7578125 26.26171875 17.125 28.6875 C16.92132813 29.49574219 16.71765625 30.30398437 16.5078125 31.13671875 C16.34023437 31.75160156 16.17265625 32.36648437 16 33 C16.69480469 33.04898438 17.38960937 33.09796875 18.10546875 33.1484375 C23.16047756 33.52003511 28.20294856 33.89456584 33.23828125 34.4765625 C48.70636014 36.21466903 64.17345863 36.430164 79.71923828 36.60089111 C83.26017749 36.64167345 86.80097462 36.69241686 90.34179688 36.7421875 C97.22775944 36.83757746 104.11381452 36.92239529 111 37 C111 38.32 111 39.64 111 41 C77.67911767 41.26228018 44.97970044 41.35384747 12 36 C12.22300781 35.36578125 12.44601563 34.7315625 12.67578125 34.078125 C14.08786961 27.80602702 13.4598193 24.33305529 10.20703125 18.85546875 C7.38819864 14.4654251 4.40347591 10.19604023 1.32275391 5.98608398 C0 4 0 4 -1 1 C-0.67 0.67 -0.34 0.34 0 0 Z " fill="#F4F8F9" transform="translate(109,197)"/>
  <!--<path d="M0 0 C2.46800047 1.15173355 4.04783565 2.04783565 6 4 C8.66242821 4.46290221 8.66242821 4.46290221 11.625 4.625 C13.39875 4.74875 15.1725 4.8725 17 5 C17 9.62 17 14.24 17 19 C6.44 19 -4.12 19 -15 19 C-15 14.38 -15 9.76 -15 5 C-13.453125 4.9175 -11.90625 4.835 -10.3125 4.75 C-5.7564555 4.31701421 -3.26501258 3.37384633 0 0 Z " fill="#FEFEFE" transform="translate(251,242)"/>-->
  <path d="M0 0 C69.63 0 139.26 0 211 0 C211 0.33 211 0.66 211 1 C144.01 1 77.02 1 8 1 C8 2.65 8 4.3 8 6 C74.99 6 141.98 6 211 6 C211 6.33 211 6.66 211 7 C141.37 7 71.74 7 0 7 C0 4.69 0 2.38 0 0 Z " fill="#beebde" transform="translate(145,80)"/>
  <path d="M0 0 C2.97 0 5.94 0 9 0 C9 13.2 9 26.4 9 40 C12.3 40.33 15.6 40.66 19 41 C19.33 41.99 19.66 42.98 20 44 C16.85418577 44.02888514 13.70840531 44.04675923 10.5625 44.0625 C9.66466797 44.07087891 8.76683594 44.07925781 7.84179688 44.08789062 C6.56079102 44.09272461 6.56079102 44.09272461 5.25390625 44.09765625 C4.46314697 44.10289307 3.6723877 44.10812988 2.85766602 44.11352539 C1 44 1 44 0 43 C-0.09268999 41.64905018 -0.11747326 40.29332909 -0.11352539 38.93920898 C-0.11344986 38.07839218 -0.11337433 37.21757538 -0.11329651 36.33067322 C-0.10813522 35.39526199 -0.10297394 34.45985077 -0.09765625 33.49609375 C-0.0962413 32.54307877 -0.09482635 31.59006378 -0.09336853 30.60816956 C-0.08775152 27.55124835 -0.07519616 24.49439923 -0.0625 21.4375 C-0.05748719 19.37044376 -0.05292391 17.30338638 -0.04882812 15.23632812 C-0.03777656 10.15752412 -0.02050055 5.0787743 0 0 Z " fill="#EBF3F7" transform="translate(272,221)"/>
  <path d="M0 0 C2.64 0 5.28 0 8 0 C8.02464513 6.1055471 8.04283371 12.21106551 8.05493164 18.31665039 C8.05997288 20.39543156 8.06680574 22.47420916 8.07543945 24.55297852 C8.08751422 27.53402586 8.09323024 30.51502649 8.09765625 33.49609375 C8.10281754 34.43150497 8.10797882 35.3669162 8.11329651 36.33067322 C8.11340981 37.62189842 8.11340981 37.62189842 8.11352539 38.93920898 C8.115746 39.70087875 8.11796661 40.46254852 8.12025452 41.24729919 C8 43 8 43 7 44 C5.58429877 44.08651611 4.164405 44.10704904 2.74609375 44.09765625 C1.89208984 44.09443359 1.03808594 44.09121094 0.15820312 44.08789062 C-0.73962891 44.07951172 -1.63746094 44.07113281 -2.5625 44.0625 C-3.46419922 44.05798828 -4.36589844 44.05347656 -5.29492188 44.04882812 C-7.53001314 44.03700225 -9.76497437 44.0205222 -12 44 C-12 43.01 -12 42.02 -12 41 C-9 40 -9 40 0 40 C0 26.8 0 13.6 0 0 Z " fill="#FEFEFE" transform="translate(223,221)"/>
  <path d="M0 0 C1.625 1.31640625 1.625 1.31640625 3.3125 2.9375 C6.77841879 6.23397388 9.31385431 6.55383053 13.9765625 6.81640625 C16 7 16 7 18.5625 8.125 C20 10 20 10 20.5 13.5 C20 17 20 17 18.265625 18.6953125 C13.82472469 21.25265854 8.70898036 20.53791918 3.81640625 19.56640625 C-1.64705823 17.85175171 -5.60720644 14.58222119 -9 10 C-10.1875 6.8125 -10.1875 6.8125 -10 4 C-7.29442188 -0.11247875 -4.7711614 -0.93552184 0 0 Z " fill="#25765f" transform="translate(234,164)"/>
  <path d="M0 0 C6.34780311 0.57015868 11.77485419 2.61252387 17.68359375 4.9296875 C18.69792984 5.32068634 19.71226593 5.71168518 20.75733948 6.11453247 C23.9867768 7.36112685 27.21216821 8.61782653 30.4375 9.875 C32.60194862 10.71292422 34.76665972 11.55017078 36.93164062 12.38671875 C40.91890184 13.92788161 44.90435599 15.47356248 48.88842773 17.02294922 C53.24706413 18.71482408 57.61846644 20.36838963 62 22 C61.67 23.32 61.34 24.64 61 26 C59.02 25.34 57.04 24.68 55 24 C54.76410156 24.68191406 54.52820313 25.36382812 54.28515625 26.06640625 C52.71984511 29.63950249 50.63741343 32.73629846 48.4375 35.9375 C45.70604304 39.95034414 42.99698726 43.96341265 40.4453125 48.09375 C40.0438501 48.73965088 39.6423877 49.38555176 39.22875977 50.05102539 C38.46293106 51.28978578 37.70530669 52.53366345 36.95678711 53.78295898 C35.91015625 55.46484375 35.91015625 55.46484375 34 58 C33.01 58 32.02 58 31 58 C31.48538584 52.81243882 34.16881477 49.2653743 37 45.0625 C37.99638065 43.55487707 38.99246954 42.04706128 39.98828125 40.5390625 C40.49053223 39.78399414 40.9927832 39.02892578 41.51025391 38.25097656 C43.77077174 34.83537931 45.9797461 31.38734057 48.1875 27.9375 C48.93083084 26.77984597 49.67430399 25.6222833 50.41796875 24.46484375 C51.20107422 23.24474609 51.20107422 23.24474609 52 22 C50.91353935 21.80713158 50.91353935 21.80713158 49.80513 21.61036682 C47.10345919 21.02251163 44.69488182 20.22740728 42.11791992 19.23413086 C41.17732224 18.87383286 40.23672455 18.51353485 39.2676239 18.14231873 C38.2653627 17.75375198 37.2631015 17.36518524 36.23046875 16.96484375 C35.19432938 16.56672989 34.15819 16.16861603 33.09065247 15.75843811 C29.78814634 14.48853562 26.487811 13.21309506 23.1875 11.9375 C20.94610448 11.07450366 18.7045696 10.21186916 16.46289062 9.34960938 C10.97363768 7.23726583 5.48615569 5.12037376 0 3 C0 2.01 0 1.02 0 0 Z " fill="#F6F9FA" transform="translate(377,120)"/>
  <path d="M0 0 C0.495 0.99 0.495 0.99 1 2 C0.29206299 2.26103516 -0.41587402 2.52207031 -1.14526367 2.79101562 C-16.46326112 8.44262796 -31.75623927 14.15083994 -47 20 C-45.72844318 23.39516857 -44.26917442 26.37912101 -42.3203125 29.43359375 C-41.54494141 30.6546582 -41.54494141 30.6546582 -40.75390625 31.90039062 C-40.21636719 32.73763672 -39.67882812 33.57488281 -39.125 34.4375 C-38.59519531 35.27087891 -38.06539062 36.10425781 -37.51953125 36.96289062 C-35.27452864 40.48637487 -33.01723415 43.98719185 -30.6328125 47.41796875 C-28.84188261 50.25003731 -28.61351945 51.71491534 -29 55 C-32.8583658 53.71387807 -33.33822008 52.29596845 -35.43359375 48.86328125 C-36.4071582 47.28450195 -36.4071582 47.28450195 -37.40039062 45.67382812 C-38.07263672 44.56458984 -38.74488281 43.45535156 -39.4375 42.3125 C-40.768852 40.14151039 -42.10086381 37.97092524 -43.43359375 35.80078125 C-44.02197021 34.83309814 -44.61034668 33.86541504 -45.21655273 32.8684082 C-46.50191598 30.80109366 -47.84501094 28.7692817 -49.22290039 26.76245117 C-51 24 -51 24 -51 22 C-53.97 22.66 -56.94 23.32 -60 24 C-60.33 23.01 -60.66 22.02 -61 21 C-49.74942711 16.46247613 -38.46421317 12.01686971 -27.14379883 7.65649414 C-25.23491238 6.91891372 -23.32771326 6.17695337 -21.42211914 5.4309082 C-18.63560266 4.34059395 -15.84395101 3.26454148 -13.05078125 2.19140625 C-12.19978348 1.85508682 -11.34878571 1.5187674 -10.47200012 1.17225647 C-9.67984604 0.87121506 -8.88769196 0.57017365 -8.0715332 0.26000977 C-7.37953323 -0.0083519 -6.68753326 -0.27671356 -5.9745636 -0.5532074 C-3.61412814 -1.08731281 -2.24505505 -0.87385695 0 0 Z " fill="#F6F9FA" transform="translate(125,121)"/>
  <path d="M0 0 C1.75170898 2.07617188 1.75170898 2.07617188 3.49609375 4.96875 C4.13740234 6.01546875 4.77871094 7.0621875 5.43945312 8.140625 C6.09880859 9.24921875 6.75816406 10.3578125 7.4375 11.5 C8.09298828 12.57765625 8.74847656 13.6553125 9.42382812 14.765625 C11.80267968 18.67868072 14.16304264 22.6026451 16.51611328 26.53125 C18.6376675 30.3818754 18.6376675 30.3818754 22 33 C22 33.66 22 34.32 22 35 C20.29898455 35.24516415 18.58756087 35.41864489 16.875 35.5625 C15.44800781 35.71912109 15.44800781 35.71912109 13.9921875 35.87890625 C9.03595234 34.42309305 7.48750336 30.30355966 5 26 C4.44199707 25.08565186 3.88399414 24.17130371 3.30908203 23.22924805 C1.55560015 20.35478849 -0.16292965 17.46178656 -1.875 14.5625 C-2.46796875 13.57056641 -3.0609375 12.57863281 -3.671875 11.55664062 C-4.23132813 10.61111328 -4.79078125 9.66558594 -5.3671875 8.69140625 C-5.87362793 7.83748291 -6.38006836 6.98355957 -6.90185547 6.10375977 C-8 4 -8 4 -8 2 C-4.91190305 0.23537317 -3.76687864 0 0 0 Z " fill="#96c7b9" transform="translate(74,143)"/>
  <path d="M0 0 C2.952041 0.68863415 5.75979482 1.5803034 8.60986328 2.6105957 C9.97245773 3.10164543 9.97245773 3.10164543 11.36257935 3.60261536 C12.33863129 3.9567601 13.31468323 4.31090485 14.3203125 4.67578125 C15.33415009 5.04221237 16.34798767 5.40864349 17.39254761 5.78617859 C19.53971576 6.56278953 21.68652707 7.34038764 23.83300781 8.11889648 C27.09081234 9.30010431 30.34999779 10.47743664 33.609375 11.65429688 C35.70060545 12.4112246 37.79175388 13.16837896 39.8828125 13.92578125 C40.84671906 14.2738533 41.81062561 14.62192535 42.80374146 14.98054504 C48.91921558 17.20184512 54.9742413 19.54575688 61 22 C60.34 23.98 59.68 25.96 59 28 C58.505 27.01 58.505 27.01 58 26 C56.33706503 25.64852287 54.66909294 25.32096363 53 25 C50.07456167 24.03413243 47.20309942 22.92788455 44.32421875 21.83203125 C43.48139847 21.51473557 42.63857819 21.19743988 41.7702179 20.87052917 C39.07460177 19.85479224 36.38102561 18.83376596 33.6875 17.8125 C31.91875437 17.14482566 30.14987533 16.47750464 28.38085938 15.81054688 C24.91647191 14.50391522 21.45281818 13.19536763 17.98974609 11.88525391 C10.99880184 9.24180789 3.99973958 6.62004869 -3 4 C-2.01 2.68 -1.02 1.36 0 0 Z " fill="#96c7b9" transform="translate(381,116)"/>
  <path d="M0 0 C0.66 0.99 1.32 1.98 2 3 C1.1500798 3.32493439 1.1500798 3.32493439 0.2829895 3.65643311 C-5.65544201 5.92693774 -11.59346107 8.19851856 -17.53125 10.47070312 C-19.74240903 11.3166781 -21.95367038 12.16238571 -24.16503906 13.0078125 C-27.35769662 14.22844983 -30.54997556 15.45007285 -33.7421875 16.671875 C-34.71864227 17.04495789 -35.69509705 17.41804077 -36.70114136 17.8024292 C-37.64136139 18.16250061 -38.58158142 18.52257202 -39.55029297 18.89355469 C-40.45551697 19.24011108 -41.36074097 19.58666748 -42.293396 19.94372559 C-45.85643049 21.33422902 -49.38849214 22.79738227 -52.91531372 24.27716064 C-55 25 -55 25 -58 25 C-58.33 23.68 -58.66 22.36 -59 21 C-49.29707025 16.24981832 -39.18775043 12.5506196 -29.07324219 8.78686523 C-26.10795476 7.68114403 -23.14774666 6.5624949 -20.1875 5.44335938 C-18.29456651 4.7361872 -16.40134729 4.0297793 -14.5078125 3.32421875 C-13.18742477 2.82277596 -13.18742477 2.82277596 -11.84036255 2.311203 C-11.01535248 2.00700943 -10.19034241 1.70281586 -9.34033203 1.3894043 C-8.62072296 1.12024704 -7.90111389 0.85108978 -7.15969849 0.57377625 C-4.62396143 -0.09990376 -2.61047568 -0.30426272 0 0 Z " fill="#96c7b9" transform="translate(121,117)"/>
  <path d="M0 0 C0.495 1.98 0.495 1.98 1 4 C-0.25167969 4.00257812 -1.50335938 4.00515625 -2.79296875 4.0078125 C-26.79874959 4.39559466 -49.57522938 10.13254752 -72.0300293 18.36083984 C-74 19 -74 19 -76 19 C-76 17.68 -76 16.36 -76 15 C-51.15536457 5.71074472 -26.64263872 -0.6980604 0 0 Z " fill="#F3F8F9" transform="translate(214,30)"/>
  <path d="M0 0 C2.475 0.495 2.475 0.495 5 1 C4.42593429 4.8825992 3.2977952 7.53229982 1.19921875 10.8359375 C0.63396484 11.73570312 0.06871094 12.63546875 -0.51367188 13.5625 C-1.4040918 14.9546875 -1.4040918 14.9546875 -2.3125 16.375 C-3.47632754 18.21547147 -4.63911051 20.05660394 -5.80078125 21.8984375 C-6.35072754 22.76823242 -6.90067383 23.63802734 -7.46728516 24.53417969 C-9.40025721 27.64393084 -11.21635318 30.80264793 -13 34 C-15.64 34 -18.28 34 -21 34 C-19.51066684 29.78616962 -17.39862597 26.37396702 -14.90234375 22.67578125 C-14.50801651 22.08830612 -14.11368927 21.50083099 -13.70741272 20.89555359 C-12.45513363 19.03155757 -11.19660518 17.17189025 -9.9375 15.3125 C-8.67605416 13.44159966 -7.41592326 11.56982641 -6.15687561 9.6973114 C-5.01836779 8.00532565 -3.87633529 6.31571319 -2.73413086 4.6262207 C-1.02921623 2.1581465 -1.02921623 2.1581465 0 0 Z " fill="#96c7b9" transform="translate(432,144)"/>
  <path d="M0 0 C4.58544282 2.46575699 8.14630484 5.61141737 11.875 9.1875 C12.78378906 9.99670898 12.78378906 9.99670898 13.7109375 10.82226562 C17.89442174 14.85837713 17.89442174 14.85837713 18.19458008 18.10400391 C17.75182322 21.95532774 16.6406703 25.49990335 15 29 C11.7195134 25.97185852 9.21060039 22.63740222 6.66015625 19 C5.01290327 16.8294517 5.01290327 16.8294517 2.328125 15.171875 C0 13 0 13 -0.48828125 9.765625 C-0.43027344 8.60546875 -0.37226563 7.4453125 -0.3125 6.25 C-0.26738281 5.07953125 -0.22226562 3.9090625 -0.17578125 2.703125 C-0.11777344 1.81109375 -0.05976563 0.9190625 0 0 Z " fill="#F8FBFD" transform="translate(361,142)"/>
  <path d="M0 0 C1.07477862 11.49842523 1.07477862 11.49842523 -1.34765625 14.8828125 C-2.54764449 15.80588038 -3.78171276 16.68602517 -5.04296875 17.5234375 C-8.62378266 20.22512943 -10.69961365 24.20815436 -13 28 C-16.10125983 24.89874017 -16.99187795 21.62996529 -17.33837891 17.37158203 C-16.66535549 12.65459108 -13.09002901 9.98412878 -9.6875 6.9375 C-8.98431641 6.26267578 -8.28113281 5.58785156 -7.55664062 4.89257812 C-2.36664134 0 -2.36664134 0 0 0 Z " fill="#F2F8FB" transform="translate(142,141)"/>
  <path d="M0 0 C2.375 0.8125 2.375 0.8125 4.375 2.8125 C7.26723503 3.27646693 7.26723503 3.27646693 10.5 3.4375 C12.14355469 3.54964844 12.14355469 3.54964844 13.8203125 3.6640625 C15.08488281 3.73753906 15.08488281 3.73753906 16.375 3.8125 C16.375 5.4625 16.375 7.1125 16.375 8.8125 C6.37937637 9.44269694 6.37937637 9.44269694 2.1875 6.8125 C1.589375 6.1525 0.99125 5.4925 0.375 4.8125 C-2.5969385 5.93701727 -4.95940687 7.03543791 -7.625 8.8125 C-10.10546875 9.0078125 -10.10546875 9.0078125 -12.8125 8.9375 C-13.71355469 8.91945312 -14.61460937 8.90140625 -15.54296875 8.8828125 C-16.23003906 8.85960937 -16.91710937 8.83640625 -17.625 8.8125 C-17.625 7.1625 -17.625 5.5125 -17.625 3.8125 C-16.50351563 3.75642578 -16.50351563 3.75642578 -15.359375 3.69921875 C-14.37453125 3.63347656 -13.3896875 3.56773437 -12.375 3.5 C-11.40046875 3.44199219 -10.4259375 3.38398438 -9.421875 3.32421875 C-5.53613311 2.61327994 -3.89405825 -0.27814702 0 0 Z " fill="#96c7b9" transform="translate(252.625,234.1875)"/>
  <path d="M0 0 C2.49361571 1.20381448 4.68143083 2.45428722 7 4 C9.73872955 4.45772063 9.73872955 4.45772063 12.6875 4.625 C13.68136719 4.69976562 14.67523438 4.77453125 15.69921875 4.8515625 C16.45847656 4.90054688 17.21773438 4.94953125 18 5 C18 6.32 18 7.64 18 9 C16.08404032 9.08133791 14.16708068 9.13934367 12.25 9.1875 C11.18265625 9.22230469 10.1153125 9.25710937 9.015625 9.29296875 C5.65889857 8.96686191 4.51358296 8.13513339 2 6 C-1.06711564 6.27882869 -2.36370706 7.24247137 -5 9 C-7.69921875 9.1953125 -7.69921875 9.1953125 -10.6875 9.125 C-12.17830078 9.09792969 -12.17830078 9.09792969 -13.69921875 9.0703125 C-14.45847656 9.04710937 -15.21773437 9.02390625 -16 9 C-16 7.68 -16 6.36 -16 5 C-15.26394531 4.97421875 -14.52789062 4.9484375 -13.76953125 4.921875 C-6.08058844 4.50939957 -6.08058844 4.50939957 0 0 Z " fill="#F2F7F8" transform="translate(251,229)"/>
  <path d="M0 0 C3.63 0 7.26 0 11 0 C11 3.3 11 6.6 11 10 C7.37 10 3.74 10 0 10 C0 6.7 0 3.4 0 0 Z " fill="#96c7b9" transform="translate(130,109)"/>
  <path d="M0 0 C0.66 0 1.32 0 2 0 C2 13.53 2 27.06 2 41 C-2.455 41.495 -2.455 41.495 -7 42 C-9.91509282 42.94476554 -9.91509282 42.94476554 -12 44 C-12 43.01 -12 42.02 -12 41 C-9 40 -9 40 0 40 C0 26.8 0 13.6 0 0 Z " fill="#D8E3E9" transform="translate(223,221)"/>
  <path d="M0 0 C2.97 0 5.94 0 9 0 C9 3.3 9 6.6 9 10 C6.03 10 3.06 10 0 10 C0 6.7 0 3.4 0 0 Z " fill="#96c7b9" transform="translate(361,109)"/>
  <path d="M0 0 C0 0.99 0 1.98 0 3 C-2.10063576 3.69821417 -4.20565737 4.38324472 -6.3125 5.0625 C-7.48425781 5.44535156 -8.65601563 5.82820313 -9.86328125 6.22265625 C-13 7 -13 7 -16 6 C-15.67 5.01 -15.34 4.02 -15 3 C-12.63671875 2.05078125 -12.63671875 2.05078125 -9.6875 1.3125 C-8.72199219 1.06113281 -7.75648438 0.80976562 -6.76171875 0.55078125 C-4 0 -4 0 0 0 Z " fill="#25765f" transform="translate(423,64)"/>
  <path d="M0 0 C0.66 0.33 1.32 0.66 2 1 C1.71653722 2.91789713 1.4228972 4.83429183 1.125 6.75 C0.96257812 7.81734375 0.80015625 8.8846875 0.6328125 9.984375 C0.06776118 12.67708871 -0.63422914 14.63572439 -2 17 C-2.66 17 -3.32 17 -4 17 C-3.58411954 10.80481527 -2.39748106 5.73310689 0 0 Z " fill="#25765f" transform="translate(397,40)"/>
  <path d="M0 0 C4.29 0 8.58 0 13 0 C11 4 11 4 9 5 C4.94857881 5.25860135 3.45662331 5.30441554 0 3 C0 2.01 0 1.02 0 0 Z " fill="#25765f" transform="translate(211,143)"/>
  <path d="M0 0 C2.125 0.9375 2.125 0.9375 4 2 C4 3.98 4 5.96 4 8 C2.34385343 8.38218767 0.67542976 8.71395102 -1 9 C-2 8 -2 8 -2.0625 4.4375 C-2.041875 3.303125 -2.02125 2.16875 -2 1 C-1.34 0.67 -0.68 0.34 0 0 Z " fill="#25765f" transform="translate(285,139)"/>
  <path d="M0 0 C-0.53039297 4.057041 -2.57643552 5.94844566 -5.4375 8.75 C-6.24058594 9.54921875 -7.04367187 10.3484375 -7.87109375 11.171875 C-10 13 -10 13 -12 13 C-11.46960703 8.942959 -9.42356448 7.05155434 -6.5625 4.25 C-5.75941406 3.45078125 -4.95632813 2.6515625 -4.12890625 1.828125 C-2 0 -2 0 0 0 Z " fill="#25765f" transform="translate(414,49)"/>
  <path d="M0 0 C2.31 0 4.62 0 7 0 C7 1.98 7 3.96 7 6 C4.69 6 2.38 6 0 6 C0 4.02 0 2.04 0 0 Z " fill="#E8EBED" transform="translate(146,80)"/>
  <path d="M0 0 C0.598125 0.20625 1.19625 0.4125 1.8125 0.625 C1.8125 2.605 1.8125 4.585 1.8125 6.625 C-0.8275 5.965 -3.4675 5.305 -6.1875 4.625 C-5.03076352 1.15479057 -3.91311293 -0.67081936 0 0 Z " fill="#beebde" transform="translate(240.1875,173.375)"/>
  <path d="M0 0 C2.375 0.3125 2.375 0.3125 5 1 C5.66 1.99 6.32 2.98 7 4 C5.68 4.99 4.36 5.98 3 7 C1.68 6.34 0.36 5.68 -1 5 C-0.67 3.35 -0.34 1.7 0 0 Z " fill="#EAF4F8" transform="translate(229,167)"/>
  <path d="M0 0 C3.63 0 7.26 0 11 0 C11 0.99 11 1.98 11 3 C7.37 3 3.74 3 0 3 C0 2.01 0 1.02 0 0 Z " fill="#FFFFFF" transform="translate(130,116)"/>
  <path d="M0 0 C1.65 0 3.3 0 5 0 C5.625 1.875 5.625 1.875 6 4 C5.34 4.66 4.68 5.32 4 6 C2.68 6 1.36 6 0 6 C0 4.02 0 2.04 0 0 Z " fill="#EAF4F8" transform="translate(245,175)"/>
  <path d="M0 0 C2.31 0 4.62 0 7 0 C7 1.32 7 2.64 7 4 C4.69 4 2.38 4 0 4 C0 2.68 0 1.36 0 0 Z " fill="#E7EAED" transform="translate(146,72)"/>
  <path d="M0 0 C2.97 0 5.94 0 9 0 C9 0.99 9 1.98 9 3 C6.03 3 3.06 3 0 3 C0 2.01 0 1.02 0 0 Z " fill="#FEFEFF" transform="translate(361,116)"/>
</svg>