<svg viewBox="0 0 15 15" fill="none"
  xmlns="http://www.w3.org/2000/svg">
  <path d="M10.5156 4.49605C12.1804 6.16093 12.1804 8.86284 10.5156 10.5277C8.85071 12.1926 6.14873 12.1926 4.48387 10.5277C2.81902 8.86284 2.81902 6.16093 4.48387 4.49605C5.41865 3.56127 6.68776 3.15189 7.90911 3.26789" stroke="white" stroke-linecap="round" stroke-linejoin="round"/>
  <path d="M4.94158 13.8369C3.57695 13.2911 2.38289 12.3017 1.5914 10.9303C0.813556 9.5861 0.554275 8.09182 0.738501 6.66578" stroke="white" stroke-linecap="round" stroke-linejoin="round"/>
  <path d="M3.3031 2.12833C4.46304 1.22085 5.91637 0.681818 7.49935 0.681818C9.04821 0.681818 10.4743 1.2072 11.6206 2.08056" stroke="white" stroke-linecap="round" stroke-linejoin="round"/>
  <path d="M10.0583 13.8369C11.423 13.2911 12.617 12.3017 13.4085 10.9303C14.1864 9.5861 14.4457 8.09182 14.2614 6.66578" stroke="white" stroke-linecap="round" stroke-linejoin="round"/>
</svg>
